{"title":"Les Diaboliques-720p MP4 AAC x264 BRRip 1955-CC","uid":7836113,"size":2466247577,"categoryP":"video","categoryS":"hd___movies","magnet":"?xt=urn:btih:8148371c58ac8b07114359cc2ca1382e6834e7c4&amp;dn=Les+Diaboliques-720p+MP4+AAC+x264+BRRip+1955-CC&amp;tr=udp%3A%2F%2Ftracker.openbittorrent.com%3A80&amp;tr=udp%3A%2F%2Fopen.demonii.com%3A1337&amp;tr=udp%3A%2F%2Ftracker.coppersurfer.tk%3A6969&amp;tr=udp%3A%2F%2Fexodus.desync.com%3A6969","seeders":0,"leechers":1,"uploader":"Caveman44","files":-1,"time":1353191866,"description":"Aka Demonen, Diabolique.\n &lt;a href=&quot;\nhttp://www.imdb.com/title/tt0046911/&quot; rel=&quot;nofollow&quot; target=&quot;_NEW&quot;&gt;\nhttp://www.imdb.com/title/tt0046911/&lt;/a&gt;\n\nSource: Les.Diaboliques.1955.720p.BluRay.X264-PROFOUND Thanks!\n\nSubs: Dutch, English, Greek and Spanish.\n\nSample and Screens included.\n\nGeneral\nComplete name                            : Les Diaboliques-720p MP4 AAC x264 BRRip 1955-CC.mp4\nFormat                                   : MPEG-4\nFormat profile                           : Base Media\nCodec ID                                 : isom\nFile size                                : 2.27 GiB\nDuration                                 : 1h 56mn\nOverall bit rate mode                    : Variable\nOverall bit rate                         : 2 786 Kbps\nEncoded date                             : UTC 2012-11-16 16:19:07\n\nVideo\nID                                       : 1\nFormat                                   : AVC\nFormat/Info                              : Advanced Video Codec\nFormat profile                           : &lt;a class=&quot;__cf_email__&quot; href=&quot;/cdn-cgi/l/email-protection&quot; data-cfemail=&quot;99d1f0fef1d9d5adb7a8&quot;&gt;[email&amp;#160;protected]&lt;/a&gt;&lt;script cf-hash='f9e31' type=&quot;text/javascript&quot;&gt;\n/* &lt;![CDATA[ */!function(){try{var t=&quot;currentScript&quot;in document?document.currentScript:function(){for(var t=document.getElementsByTagName(&quot;script&quot;),e=t.length;e--;)if(t[e].getAttribute(&quot;cf-hash&quot;))return t[e]}();if(t&amp;&amp;t.previousSibling){var e,r,n,i,c=t.previousSibling,a=c.getAttribute(&quot;data-cfemail&quot;);if(a){for(e=&quot;&quot;,r=parseInt(a.substr(0,2),16),n=2;a.length-n;n+=2)i=parseInt(a.substr(n,2),16)^r,e+=String.fromCharCode(i);e=document.createTextNode(e),c.parentNode.replaceChild(e,c)}}}catch(u){}}();/* ]]&gt; */&lt;/script&gt;\nFormat settings, CABAC                   : Yes\nFormat settings, ReFrames                : 5 frames\nCodec ID                                 : avc1\nCodec ID/Info                            : Advanced Video Coding\nDuration                                 : 1h 56mn\nBit rate                                 : 2 625 Kbps\nMaximum bit rate                         : 14.2 Mbps\nWidth                                    : 960 pixels\nHeight                                   : 720 pixels\nDisplay aspect ratio                     : 4:3\nFrame rate mode                          : Variable\nFrame rate                               : 23.976 fps\nMinimum frame rate                       : 23.810 fps\nMaximum frame rate                       : 24.390 fps\nColor space                              : YUV\nChroma subsampling                       : 4:2:0\nBit depth                                : 8 bits\nScan type                                : Progressive\nBits/(Pixel*Frame)                       : 0.158\nStream size                              : 2.14 GiB (94%)\nWriting library                          : x264 core 112\n\nAudio\nID                                       : 2\nFormat                                   : AAC\nFormat/Info                              : Advanced Audio Codec\nFormat profile                           : LC\nCodec ID                                 : 40\nDuration                                 : 1h 56mn\nBit rate mode                            : Variable\nBit rate                                 : 160 Kbps\nMaximum bit rate                         : 193 Kbps\nChannel(s)                               : 1 channel\nChannel positions                        : Front: C\nSampling rate                            : 48.0 KHz\nCompression mode                         : Lossy\nDelay relative to video                  : 83ms\nStream size                              : 134 MiB (6%)\nLanguage                                 : French\n\nEnjoy...\n\nRequested by DreamExtractor.\n\nComing soon: The Horse Whisperer, Evita, Apollo 13, The Interpreter, Jay and Silent Bob...","torrent":{"xt":"urn:btih:8148371c58ac8b07114359cc2ca1382e6834e7c4","amp;dn":"Les+Diaboliques-720p+MP4+AAC+x264+BRRip+1955-CC","amp;tr":["udp%3A%2F%2Ftracker.openbittorrent.com%3A80","udp%3A%2F%2Fopen.demonii.com%3A1337","udp%3A%2F%2Ftracker.coppersurfer.tk%3A6969","udp%3A%2F%2Fexodus.desync.com%3A6969"],"infoHash":"8148371c58ac8b07114359cc2ca1382e6834e7c4","infoHashBuffer":{"type":"Buffer","data":[129,72,55,28,88,172,139,7,17,67,89,204,44,161,56,46,104,52,231,196]},"announce":[],"urlList":[]}}